<?xml version="1.0" encoding="utf-8"?>
<!-- Generator: Adobe Illustrator 26.0.1, SVG Export Plug-In . SVG Version: 6.00 Build 0)  -->
<svg version="1.1" id="Layer_1" xmlns="http://www.w3.org/2000/svg" xmlns:xlink="http://www.w3.org/1999/xlink" x="0px" y="0px"
	 viewBox="0 0 117 12.8" style="enable-background:new 0 0 117 12.8;" xml:space="preserve">
<g>
	<g>
		<path d="M44,12.8l-6.3-6.5l-6.3,6.5H25L37.2,0.3C37.4,0.1,37.5,0,37.7,0c0.2,0,0.3,0.1,0.5,0.3l12.2,12.5L44,12.8L44,12.8z
			 M110.5,12.8l-6.3-6.5l-6.3,6.5h-6.4l12.2-12.5c0.2-0.2,0.3-0.3,0.5-0.3c0.2,0,0.3,0.1,0.5,0.3L117,12.8L110.5,12.8L110.5,12.8z
			 M18.5,12.1c-0.5,0.5-0.9,0.7-1.7,0.7H0V8.5h15.5l2.2-2.1l-2.2-2.1H0V0h16.8c0.8,0,1.2,0.2,1.7,0.7l5.1,5.2
			c0.2,0.2,0.3,0.4,0.3,0.5c0,0.2-0.1,0.3-0.3,0.5L18.5,12.1z M57.5,0.7C58,0.2,58.4,0,59.2,0H76v4.3H60.5l-2.2,2.1l2.2,2.1H76v4.3
			H59.2c-0.8,0-1.2-0.2-1.7-0.7l-5.1-5.2c-0.2-0.2-0.3-0.4-0.3-0.5s0.1-0.3,0.3-0.5L57.5,0.7L57.5,0.7z M82.6,0h5v12.8h-5V0z"/>
	</g>
</g>
</svg>
