<?xml version="1.0" encoding="utf-8"?>
<!-- Generator: Adobe Illustrator 26.0.1, SVG Export Plug-In . SVG Version: 6.00 Build 0)  -->
<svg version="1.1" id="Layer_1" xmlns="http://www.w3.org/2000/svg" xmlns:xlink="http://www.w3.org/1999/xlink" x="0px" y="0px"
	 viewBox="0 0 74.2 12.7" style="enable-background:new 0 0 74.2 12.7;" xml:space="preserve">
<g>
	<g>
		<path d="M42.5,0c0.4,0,8.1,0,10.5,0c2.1,0,2.9,0.3,3.5,1.1c0.7,0.9,0.7,2,0.2,2.9c-0.4,0.7-1.1,1.2-2.2,1.8
			c-0.9,0.4-2.3,1.1-3.8,1.7c-2,0.9-3.7,1.6-4,1.8c-0.4,0.2-0.3,0.5,0.1,0.5c0.8,0,8.9-0.1,9.3-0.1c0.4,0,0.6,0.2,0.6,0.6
			c0,0.5,0,1.3,0,1.7c0,0.5-0.2,0.6-0.6,0.6c-0.5,0-9.1,0-9.7,0c-1.4,0-2.8,0-3.6-0.4c-1-0.5-1.4-1.5-1.4-2.2c0-1.7,1-2.3,2.8-3.1
			c1.9-0.9,7.6-3.3,8-3.5c0.4-0.2,0.3-0.6-0.1-0.6c-0.3,0-9,0.1-9.5,0.1c-0.4,0-0.7-0.1-0.7-0.5l0-1.9C41.8,0.2,42,0.1,42.5,0z
			 M63.9,7.8c0,1,0.3,1.7,1.4,1.9c0.9,0.1,2.2,0.1,3.1,0C69.3,9.6,70,9.2,70,8.2c0-0.8,0-1,0.1-1.9c0-2.1,0-5.3,0-5.6l0-0.1
			C70,0.2,70.2,0,70.6,0l0.2,0c0.5,0,2.3,0,2.7,0c0.4,0,0.6,0.2,0.6,0.7l0,0.1c0,0.4,0,5.2,0,6.6c0,0.7-0.1,2.3-0.6,3.4
			c-0.5,0.9-1.3,1.6-2.7,1.7c-2.8,0.3-5.3,0.2-7.2,0.1c-1.4-0.1-2.4-0.4-3.1-1.3c-0.9-1-0.9-2.7-0.9-4.6c0-4.2,0-5.5,0-5.9V0.7
			c0-0.5,0.2-0.7,0.6-0.7l0.2,0c0.5,0,2.4,0,2.8,0c0.4,0,0.6,0.2,0.6,0.7C63.9,1.2,63.9,6.6,63.9,7.8L63.9,7.8z M4.3,12.1
			c0,0.4-0.1,0.6-0.6,0.6c-0.4,0-2.6,0-3,0c-0.4,0-0.6-0.1-0.6-0.6C0,11.8,0,1.1,0,0.7c0-0.4,0.2-0.6,0.6-0.6c0.4,0,2.6,0,3.1,0
			c0.4,0,0.5,0.2,0.5,0.7C4.3,1.4,4.3,11.7,4.3,12.1L4.3,12.1z M31.3,12.7c-1.1,0-2.1,0-3.2-0.1c-1.6-0.1-2.3-0.6-2.9-1.4
			c-0.7-0.9-0.7-2.7-0.7-4.1c0-1.5,0-6,0-6.4c0-0.4,0.2-0.6,0.6-0.6c0.5,0,1.8,0,2.2,0l0.8,0c0.5,0,0.6,0.2,0.6,0.6v0.4
			c0,0.5,0,5,0,6.1v0.5c0,1,0.1,1.9,1.5,2.1c0.6,0.1,0.9,0.1,1.6,0.1c0.7,0,1,0,1.6-0.1c1.4-0.1,1.5-1.1,1.5-2.1V7.1
			c0-1.1,0-5.6,0-6.1V0.7c0-0.4,0.2-0.6,0.6-0.6l0.8,0c0.4,0,1.7,0,2.2,0c0.5,0,0.6,0.2,0.6,0.6c0,0.4,0,4.9,0,6.4
			c0,1.4,0,3.2-0.7,4.1c-0.6,0.8-1.4,1.3-3,1.4c-1.1,0.1-2.1,0.1-3.2,0.1L31.3,12.7z M19.9,6.6c-1.9-0.8-7.6-2.6-8.3-3
			C11.2,3.4,11.2,3,11.7,3c0.8,0,9.1,0,9.5,0c0.4,0,0.6-0.2,0.6-0.6c0-0.5,0-1.4,0-1.8c0-0.4-0.1-0.5-0.5-0.5l-9.9,0
			c-2.7,0-3.3,0.4-4.1,1.3C6.3,2.6,6.6,4.2,7.2,5c0.6,0.9,1.7,1.3,3.4,1.9c2,0.7,6.8,2.3,6.8,2.3c0.4,0.2,0.4,0.6-0.1,0.6
			c0,0-9.1-0.1-9.5-0.1c-0.4,0-0.6,0.2-0.6,0.6c0,0.4,0,1.2,0,1.6c0,0.4,0.1,0.7,0.6,0.7c0.4,0,8.3,0,10.7,0c1.8,0,3.6-0.6,4-2.6
			C22.4,8.4,21.7,7.3,19.9,6.6"/>
	</g>
</g>
</svg>
