<?xml version="1.0" encoding="utf-8"?>
<!-- Generator: Adobe Illustrator 26.0.1, SVG Export Plug-In . SVG Version: 6.00 Build 0)  -->
<svg version="1.1" id="Layer_1" xmlns="http://www.w3.org/2000/svg" xmlns:xlink="http://www.w3.org/1999/xlink" x="0px" y="0px"
	 viewBox="0 0 57 14" style="enable-background:new 0 0 57 14;" xml:space="preserve">
<g>
	<g>
		<path d="M32.6,11.9c0,0.1,0,0.2,0.1,0.2c0,0,0.1,0,0.1-0.1L50.4,0.6c0.3-0.2,0.7-0.3,1-0.3h3.8c0.6,0,1,0.4,1,1v7.3
			c0,0.9-0.2,1.4-1,1.9l-4.7,2.8c0,0-0.1,0.1-0.2,0.1c-0.1,0-0.1,0-0.1-0.2V4.6c0-0.1,0-0.2-0.1-0.2c0,0-0.1,0-0.1,0.1l-12.8,8.3
			c-0.3,0.2-0.6,0.3-1,0.3h-8.5c-0.6,0-1-0.4-1-1V1.5c0-0.1,0-0.2-0.1-0.2c0,0-0.1,0-0.1,0.1l-8.4,5.1C18.1,6.6,18,6.6,18,6.6
			c0,0,0,0.1,0.1,0.1l6,6c0.1,0.1,0.1,0.1,0.1,0.2c0,0.1-0.1,0.1-0.2,0.1h-5.4c-0.4,0-0.8-0.1-1-0.3L14,9.2c0,0-0.1-0.1-0.1-0.1
			c0,0-0.1,0-0.1,0l-6.1,3.7c-0.4,0.2-0.6,0.3-1,0.3H1.1c-0.6,0-1-0.4-1-1V4.9c0-0.9,0.2-1.4,1-1.9l4.7-2.8c0,0,0.1,0,0.1,0
			C6,0.2,6,0.2,6,0.4v9.6c0,0.1,0,0.1,0.1,0.1c0.1,0,0.1,0,0.1-0.1l15.8-9.5c0.3-0.2,0.7-0.3,1-0.3h8.5c0.6,0,1,0.4,1,1V11.9
			L32.6,11.9z"/>
	</g>
</g>
</svg>
