<?xml version="1.0" encoding="utf-8"?>
<!-- Generator: Adobe Illustrator 26.0.1, SVG Export Plug-In . SVG Version: 6.00 Build 0)  -->
<svg version="1.1" id="Layer_1" xmlns="http://www.w3.org/2000/svg" xmlns:xlink="http://www.w3.org/1999/xlink" x="0px" y="0px"
	 viewBox="0 0 275 33" style="enable-background:new 0 0 275 33;" xml:space="preserve">
<style type="text/css">
	.st0{enable-background:new    ;}
	.st1{fill:#87888C;}
	.st2{fill:#014288;}
</style>
<g class="st0">
	<path class="st1" d="M24.4,15.2l-2.2,10.6L21.8,26l-0.4,0.2c-0.3,0.2-0.6,0.3-0.9,0.5c-0.8,0.4-1.6,0.6-2.4,0.9
		c-2.1,0.7-4.2,1.1-6.4,1.1c-3.4,0-5.9-0.9-7.6-2.6c-1.8-1.8-2.6-4.2-2.6-7.4c0-3.7,1.1-7,3.4-9.7c2.5-3.3,6-4.8,10.5-4.8
		c3.3,0,5.8,0.9,7.6,2.7c0.6,0.7,1.2,1.5,1.6,2.4c0.3,0.6,0.5,1.4,0.7,2.1l-5.8,0.7l-0.1-0.2l-0.1-0.2c-0.1-0.2-0.1-0.3-0.2-0.5
		c-0.2-0.4-0.5-0.8-0.8-1.1c-0.8-0.9-2-1.4-3.5-1.4c-2.5,0-4.4,1.2-5.8,3.5c-1.1,1.9-1.7,4.1-1.7,6.5c0,1.4,0.3,2.6,1,3.5
		c0.8,1.1,2.1,1.7,3.9,1.7c0.8,0,1.6-0.1,2.3-0.2c1.1-0.2,2-0.6,2.7-1.1l0.6-3h-5.2l1-4.4H24.4z"/>
	<path class="st1" d="M22.3,28.2l5-23.6H40c0.3,0,0.6,0,0.9,0.1c0.7,0.1,1.3,0.2,1.9,0.4c1.3,0.5,2.3,1.4,2.9,2.7
		c0.2,0.5,0.4,1.1,0.5,1.7c0.1,0.5,0.1,0.9,0.1,1.4c0,2.7-1,4.7-3.1,6c-0.7,0.5-1.5,0.8-2.4,1.1c-0.3,0.1-0.7,0.2-1,0.3
		c-0.1,0-0.3,0-0.4,0.1h-0.2h-0.1c0.9,0.8,2,2.4,3.1,4.7c0.4,0.9,0.8,1.8,1.3,2.9c0.2,0.4,0.4,0.9,0.6,1.3l0.2,0.6l0.2,0.5H38
		l-0.1-0.3c-0.1-0.1-0.1-0.2-0.1-0.3c-0.1-0.2-0.1-0.3-0.2-0.4c-0.2-0.4-0.3-0.8-0.4-1.1c-0.2-0.5-0.4-0.9-0.5-1.3
		c-1-2.4-1.8-4-2.3-4.8c-0.4-0.7-1-1.1-1.6-1.3c-0.4-0.1-1.2-0.2-2.4-0.1l-2,9.7h-6.1V28.2z M32.5,9l-1.2,5.5h3.1c0.5,0,0.9,0,1.3,0
		c1.1-0.1,1.9-0.2,2.3-0.3c0.9-0.3,1.6-0.8,2-1.5c0.3-0.5,0.5-1.1,0.5-1.7c0-0.9-0.4-1.5-1.2-1.8C39,9.1,38.6,9,38.1,9h-0.6H32.5z"
		/>
	<path class="st1" d="M53,4.6l-2.7,13.1c-0.3,1.5-0.5,2.5-0.5,3c0,1.2,0.5,2,1.5,2.5c0.4,0.2,0.8,0.3,1.2,0.4c0.2,0,0.4,0,0.5,0.1
		h0.4c1.8,0,3.1-0.6,3.9-1.8c0.6-0.8,1.1-2.3,1.5-4.3l2.8-13h6.1l-2.9,13.6c-0.7,3.2-1.7,5.6-3,7.1c-1.9,2.2-4.7,3.3-8.5,3.3
		c-2.5,0-4.4-0.4-5.8-1.2c-1.4-0.8-2.4-2-3-3.5c-0.2-0.5-0.4-1.1-0.5-1.7c-0.1-0.4-0.1-0.9-0.1-1.3c0-1.3,0.2-2.7,0.6-4.4L47,4.6
		C47,4.6,53,4.6,53,4.6z"/>
	<path class="st1" d="M71.4,19.3l-1.9,8.9h-6.1l5-23.6h10.2c1.2,0,2.2,0.1,2.9,0.2c1.1,0.2,2,0.6,2.7,1.2s1.3,1.5,1.6,2.5
		c0.1,0.4,0.2,0.8,0.3,1.3c0,0.3,0.1,0.6,0.1,0.9c0,1.8-0.5,3.4-1.5,4.9c-1,1.4-2.2,2.4-3.7,3c-0.9,0.4-2,0.6-3.3,0.7
		c-0.5,0-1.1,0.1-1.6,0.1h-4.7V19.3z M73.7,8.8L72.3,15h2.6c0.4,0,0.7,0,1-0.1c0.8,0,1.4-0.2,1.8-0.3c0.7-0.3,1.3-0.8,1.8-1.5
		s0.7-1.4,0.7-2.2c0-1-0.4-1.6-1.2-1.9c-0.3-0.1-0.7-0.2-1.2-0.2h-0.7C77.1,8.8,73.7,8.8,73.7,8.8z"/>
	<path class="st1" d="M86.6,23.7l-2.3,4.5h-6.4L91.2,4.6h6.6l3.8,23.6h-5.9l-0.6-4.5H86.6z M94.6,19.2l-1-9h-0.1l-4.6,9H94.6z"/>
</g>
<g class="st0">
	<path class="st2" d="M114.2,19.3l-1.9,8.9h-6.1l5-23.6h10.2c1.2,0,2.2,0.1,2.9,0.2c1.1,0.2,2,0.6,2.7,1.2s1.3,1.5,1.6,2.5
		c0.1,0.4,0.2,0.8,0.3,1.3c0,0.3,0.1,0.6,0.1,0.9c0,1.8-0.5,3.4-1.5,4.9c-1,1.4-2.2,2.4-3.7,3c-0.9,0.4-2,0.6-3.3,0.7
		c-0.5,0-1.1,0.1-1.6,0.1h-4.7V19.3z M116.4,8.8L115,15h2.6c0.4,0,0.7,0,1-0.1c0.8,0,1.4-0.2,1.8-0.3c0.7-0.3,1.3-0.8,1.8-1.5
		s0.7-1.4,0.7-2.2c0-1-0.4-1.6-1.2-1.9c-0.3-0.1-0.7-0.2-1.2-0.2h-0.7C119.8,8.8,116.4,8.8,116.4,8.8z"/>
	<path class="st2" d="M129.6,9.2c2.5-3.3,6.1-5,10.6-5c3.5,0,6.1,1.1,7.9,3.2c1.5,1.8,2.2,4,2.2,6.7c0,3.5-1.1,6.7-3.3,9.5
		c-2.6,3.4-6.1,5-10.4,5c-3.5,0-6.2-1-8-3.1c-1.5-1.7-2.2-3.9-2.2-6.5C126.4,15.2,127.5,11.9,129.6,9.2z M133.8,22.5
		c0.9,0.9,2,1.4,3.3,1.4c2.4,0,4.2-1.3,5.6-4c0.5-1,0.9-2.1,1.3-3.3c0.2-1,0.4-1.9,0.4-2.7c0-1.3-0.4-2.4-1.1-3.3
		c-0.9-1.1-2.1-1.6-3.6-1.6c-2.3,0-4.1,1.2-5.5,3.6c-1.1,2-1.7,4.1-1.7,6.3C132.4,20.3,132.9,21.6,133.8,22.5z"/>
	<path class="st2" d="M147.3,28.2l5-23.6h6.1l-4,18.8h11.8l-1,4.9L147.3,28.2L147.3,28.2z"/>
	<path class="st2" d="M173.7,28.2l-0.9-18.9h-0.1l-3.5,18.9H164l5-23.6h7.9l0.8,15.8h0.1l7.8-15.8h8.1l-5,23.6h-5.3l4.5-18.7
		l-0.1-0.1l-9,18.8C178.8,28.2,173.7,28.2,173.7,28.2z"/>
	<path class="st2" d="M193.7,9.2c2.5-3.3,6.1-5,10.6-5c3.5,0,6.1,1.1,7.9,3.2c1.5,1.8,2.2,4,2.2,6.7c0,3.5-1.1,6.7-3.3,9.5
		c-2.6,3.4-6.1,5-10.4,5c-3.5,0-6.2-1-8-3.1c-1.5-1.7-2.2-3.9-2.2-6.5C190.5,15.2,191.6,11.9,193.7,9.2z M197.8,22.5
		c0.9,0.9,2,1.4,3.3,1.4c2.4,0,4.2-1.3,5.6-4c0.5-1,0.9-2.1,1.3-3.3c0.2-1,0.4-1.9,0.4-2.7c0-1.3-0.4-2.4-1.1-3.3
		c-0.9-1.1-2.1-1.6-3.6-1.6c-2.3,0-4.1,1.2-5.5,3.6c-1.1,2-1.7,4.1-1.7,6.3C196.5,20.3,196.9,21.6,197.8,22.5z"/>
	<path class="st2" d="M215.8,28.2l4-18.8h-7.2l1-4.9h20.5l-1,4.9h-7.3l-4,18.8H215.8z"/>
	<path class="st2" d="M231.7,9.2c2.5-3.3,6.1-5,10.6-5c3.5,0,6.1,1.1,7.9,3.2c1.5,1.8,2.2,4,2.2,6.7c0,3.5-1.1,6.7-3.3,9.5
		c-2.6,3.4-6.1,5-10.4,5c-3.5,0-6.2-1-8-3.1c-1.5-1.7-2.2-3.9-2.2-6.5C228.5,15.2,229.6,11.9,231.7,9.2z M235.8,22.5
		c0.9,0.9,2,1.4,3.3,1.4c2.4,0,4.2-1.3,5.6-4c0.5-1,0.9-2.1,1.3-3.3c0.2-1,0.4-1.9,0.4-2.7c0-1.3-0.4-2.4-1.1-3.3
		c-0.9-1.1-2.1-1.6-3.6-1.6c-2.3,0-4.1,1.2-5.5,3.6c-1.1,2-1.7,4.1-1.7,6.3C234.5,20.3,235,21.6,235.8,22.5z"/>
	<path class="st2" d="M249.4,28.2l5-23.6h12.7c0.3,0,0.6,0,0.9,0.1c0.7,0.1,1.3,0.2,1.9,0.4c1.3,0.5,2.3,1.4,2.9,2.7
		c0.2,0.5,0.4,1.1,0.5,1.7c0.1,0.5,0.1,0.9,0.1,1.4c0,2.7-1,4.7-3.1,6c-0.7,0.5-1.5,0.8-2.4,1.1c-0.3,0.1-0.7,0.2-1,0.3
		c-0.1,0-0.3,0-0.4,0.1h-0.2h-0.1c0.9,0.8,2,2.4,3.1,4.7c0.4,0.9,0.8,1.8,1.3,2.9c0.2,0.4,0.4,0.9,0.6,1.3l0.2,0.6l0.2,0.3h-6.5
		l-0.1-0.3c-0.1-0.1-0.1-0.2-0.1-0.3c-0.1-0.2-0.1-0.3-0.2-0.4c-0.2-0.4-0.3-0.8-0.4-1.1c-0.2-0.5-0.4-0.9-0.5-1.3
		c-1-2.4-1.8-4-2.3-4.8c-0.4-0.7-1-1.1-1.6-1.3c-0.4-0.1-1.2-0.2-2.4-0.1l-2,9.7h-6.1V28.2z M259.6,9l-1.2,5.5h3.1
		c0.5,0,0.9,0,1.3,0c1.1-0.1,1.9-0.2,2.3-0.3c0.9-0.3,1.6-0.8,2-1.5c0.3-0.5,0.5-1.1,0.5-1.7c0-0.9-0.4-1.5-1.2-1.8
		c-0.3-0.1-0.7-0.2-1.2-0.2h-0.6H259.6z"/>
</g>
</svg>
