<?xml version="1.0" encoding="utf-8"?>
<!-- Generator: Adobe Illustrator 26.0.1, SVG Export Plug-In . SVG Version: 6.00 Build 0)  -->
<svg version="1.1" id="Layer_1" xmlns="http://www.w3.org/2000/svg" xmlns:xlink="http://www.w3.org/1999/xlink" x="0px" y="0px"
	 viewBox="0 0 108.2 12.5" style="enable-background:new 0 0 108.2 12.5;" xml:space="preserve">
<g>
	<g>
		<g>
			<path d="M63,9.8c-0.1,0-0.4,0-0.6,0H51.4v2.6h11.3c0.1,0,0.8,0,0.9,0c2.3-0.2,3.3-2.1,3.3-3.8c0-1.7-1.1-3.6-3.2-3.8
				c-0.4,0-0.8,0-0.9,0h-7.4c-0.3,0-0.7,0-0.8-0.1c-0.6-0.1-0.8-0.7-0.8-1.1c0-0.4,0.2-0.9,0.8-1.1c0.2,0,0.4-0.1,0.8-0.1h10.6V0
				H55.3c-0.5,0-0.8,0-1.1,0.1C52.3,0.3,51,1.8,51,3.7c0,1.5,1,3.3,3.1,3.6c0.4,0,0.9,0,1.2,0h7.2c0.1,0,0.5,0,0.5,0
				c0.8,0.1,1.1,0.7,1.1,1.2C64.1,9.2,63.8,9.7,63,9.8L63,9.8z"/>
		</g>
		<g>
			<path d="M42.1,9.8c-0.1,0-0.4,0-0.6,0H30.4v2.6h11.3c0.1,0,0.8,0,0.9,0c2.3-0.2,3.3-2.1,3.3-3.8c0-1.7-1.1-3.6-3.2-3.8
				c-0.4,0-0.8,0-0.9,0h-7.4c-0.3,0-0.7,0-0.8-0.1c-0.6-0.1-0.8-0.7-0.8-1.1c0-0.4,0.2-0.9,0.8-1.1c0.2,0,0.4-0.1,0.8-0.1h10.6V0
				H34.3c-0.5,0-0.8,0-1.1,0.1c-1.8,0.3-3.1,1.7-3.1,3.6c0,1.5,1,3.3,3.1,3.6c0.4,0,0.9,0,1.2,0h7.2c0.1,0,0.5,0,0.5,0
				c0.8,0.1,1.1,0.7,1.1,1.2C43.1,9.2,42.8,9.7,42.1,9.8z"/>
		</g>
		<g>
			<path d="M21.8,12.5V-0.1h2.8v12.6H21.8z"/>
		</g>
		<g>
			<path d="M15.7,12.5V-0.1h-2.8v9.4L3.6-0.1H0v12.6h2.8V3.1l9.4,9.4H15.7z"/>
		</g>
		<g>
			<path d="M105.4-0.1v9.4l-9.3-9.4h-3.6v12.6h2.8V3.1l9.3,9.4h3.5V-0.1H105.4z"/>
		</g>
		<g>
			<path d="M82.7,7.9h-6.3l3.2-5.1L82.7,7.9z M78-0.1l-7.9,12.6h3.4l1.4-2.3h9.2l1.4,2.3h3.4L81-0.1H78z"/>
		</g>
	</g>
</g>
</svg>
