<?xml version="1.0" encoding="utf-8"?>
<!-- Generator: Adobe Illustrator 26.0.1, SVG Export Plug-In . SVG Version: 6.00 Build 0)  -->
<svg version="1.1" id="Layer_1" xmlns="http://www.w3.org/2000/svg" xmlns:xlink="http://www.w3.org/1999/xlink" x="0px" y="0px"
	 viewBox="0 0 128 25" style="enable-background:new 0 0 128 25;" xml:space="preserve">
<g>
	<g>
		<g>
			<g>
				<path d="M10.7,4.3L9.8,6.1l3.3,6.1L7.4,22.6L1.9,12.2L8.4,0H6.5L0,12.2l6.5,12.2h1.9l6.5-12.2L10.7,4.3z"/>
			</g>
			<g>
				<path d="M12.1,0h-1.9L3.7,12.2L7.9,20l0.9-1.7l-3.3-6.1l5.6-10.4l5.6,10.4l-6.5,12.2h1.9l6.5-12.2L12.1,0z"/>
			</g>
		</g>
		<g>
			<path d="M81.5,13.8c-0.8-1.9-1.6-3.9-2.4-5.8c-0.7,1.6-1.6,3.6-2.4,5.8H81.5z M86.6,18.4h-3.3c-0.3-0.7-0.5-1.5-0.8-2.2h-6.8
				c-0.3,0.7-0.6,1.5-0.8,2.2h-3.3C73.2,14.1,75,9.9,77,5.8h4.1C83.1,9.9,84.9,14.1,86.6,18.4z M101.5,5.8v7.9c0,3.4-2.1,5-6.4,5H95
				c-4.3,0-6.6-1.7-6.6-5v-6c0-0.2,0-0.3-0.2-0.6c-0.2-0.3-0.3-0.5-0.3-0.5l0.1-0.8h3.7v7.7c0,0.9,0.2,1.4,0.6,1.8
				c0.5,0.5,1.4,0.7,2.7,0.7c1.3,0,2.2-0.2,2.7-0.7c0.4-0.4,0.6-0.9,0.6-1.8V5.8L101.5,5.8z M66.1,5.8l2.9,0v12.6h-2.8
				c-1.6-1.8-3.7-4.1-5.1-5.6c-0.7-0.8-1.8-2-2.3-2.8v8.4l-3,0V7.6c0-0.2,0-0.3-0.2-0.6c-0.2-0.3-0.3-0.5-0.3-0.5l0.1-0.8h3.2
				c1.2,1.3,3.5,3.8,4.6,5c1.4,1.5,2.2,2.4,2.9,3.4L66.1,5.8L66.1,5.8z M34.4,10c0-0.7-0.2-1.1-0.6-1.4c-0.4-0.3-0.9-0.4-2-0.4h-3.5
				V12h4.5c0.5,0,0.8-0.1,1-0.4C34.2,11.3,34.4,10.7,34.4,10z M38.2,18.4h-3.6l-2.2-4.1h-4.1v4.1H25V7.8c0-0.3,0-0.4-0.2-0.8
				c-0.2-0.3-0.3-0.5-0.3-0.5l0.1-0.8h7.5c2.2,0,3.4,0.3,4.4,1.1c0.8,0.7,1.2,1.7,1.2,3c0,1.6-0.9,3.1-2.3,3.8L38.2,18.4z
				 M52.3,16.1v2.3h-11V5.8h10.8v2.3h-7.5v2.8h6.8v2.3h-6.8v2.9L52.3,16.1z M115.7,16.1v2.3h-10.5V5.8h3.3v10.3L115.7,16.1z
				 M127.3,5.8v2.3h-4.9v10.3h-3.3V8.1h-4.9V5.8L127.3,5.8z"/>
		</g>
	</g>
</g>
</svg>
