<?xml version="1.0" encoding="utf-8"?>
<!-- Generator: Adobe Illustrator 26.0.1, SVG Export Plug-In . SVG Version: 6.00 Build 0)  -->
<svg version="1.1" id="Layer_1" xmlns="http://www.w3.org/2000/svg" xmlns:xlink="http://www.w3.org/1999/xlink" x="0px" y="0px"
	 viewBox="0 0 138.9 18.8" style="enable-background:new 0 0 138.9 18.8;" xml:space="preserve">
<g>
	<g>
		<g>
			<path d="M54.3,3.2H58v8.7c0,0.8,0.5,1.1,1.2,1.1h6.2c0.8,0,1.2-0.3,1.2-1.1V3.2h3.6v9.3c0,2-1.7,3.5-3.6,3.5H58
				c-1.9,0-3.6-1.5-3.6-3.5L54.3,3.2L54.3,3.2z"/>
		</g>
		<g>
			<path d="M37.1,12h3.6c0.1,0.7,0.5,1,1.2,1h6.6c0.6,0,1-0.5,1-1.1c0-0.8-0.6-1.2-1.3-1.2H41c-2.4,0-4-1.2-4-3.7
				c0-1.3,0.5-2.7,1.7-3.4c0.7-0.4,1.6-0.5,2.4-0.5h8.5c1.8,0,3.3,1.3,3.3,3.2v0.7h-3.7c0-0.6-0.4-1-1-1H42c-0.6,0-1.2,0.3-1.2,1
				c0,0.7,0.5,1,1.2,1h7.7c2.5,0,3.8,1.7,3.8,4.1c0,2.3-1.1,3.8-3.5,3.8h-9.2c-2.1,0-3.6-0.8-3.6-3.1L37.1,12L37.1,12z"/>
		</g>
		<g>
			<path d="M123,3.2h3.6v8.7c0,0.8,0.5,1.1,1.2,1.1h6.2c0.8,0,1.2-0.3,1.2-1.1V3.2h3.6v9.3c0,2-1.7,3.5-3.6,3.5h-8.7
				c-1.9,0-3.6-1.5-3.6-3.5L123,3.2z"/>
		</g>
		<g>
			<path d="M98.5,10.7h-4.6l2.3-4.2L98.5,10.7z M100.1,13.4l1.4,2.5h4L98.6,3.2h-4.7l-6.9,12.7h4l1.4-2.5H100.1z"/>
		</g>
		<g>
			<path d="M75.3,6.1h6.9c0.6,0,1,0.5,1,1.1c0,0.6-0.4,1-1,1h-6.9L75.3,6.1z M75.3,10.8h6.9c0.7,0,1.3,0.4,1.3,1.1
				c0,0.7-0.6,1.1-1.3,1.1h-6.9L75.3,10.8z M71.6,15.9h12.5c1.9,0,3.1-1.7,3.1-3.5c0-1.3-0.6-2.4-1.8-3c1-0.6,1.5-1.6,1.5-2.7
				c0-2.7-1.8-3.5-4.2-3.5H71.6V15.9z"/>
		</g>
		<g>
			<path d="M109.9,6.1h6.5c1,0,1.8,0.6,1.8,1.6c0,0.8-0.6,1.6-1.5,1.6h-6.8V6.1z M106.2,3.2l0,12.7h3.7v-3.7h6.6
				c1.2,0,1.8,0.4,1.8,1.6v2.1h3.6v-2.1c0-1.4-0.6-2.4-1.9-3c1.3-0.7,1.8-2,1.8-3.5c0-2.2-1.2-4.2-3.6-4.2L106.2,3.2z"/>
		</g>
		<g>
			<path d="M26.2,10.7l0.8,1.8l0.8-1.8l2.7-0.5l-2.7-0.5L27,8l-0.8,1.8l-2.7,0.5L26.2,10.7z M12.5,15.2l0.8,1.8l0.8-1.8l2.7-0.5
				l-2.7-0.5l-0.8-1.8l-0.8,1.8l-2.7,0.5L12.5,15.2z M20.9,14.6l0.8,1.8l0.8-1.8l2.7-0.5l-2.7-0.5l-0.8-1.8l-0.8,1.8l-2.7,0.5
				L20.9,14.6z M23.8,6l0.8,1.8L25.4,6l2.7-0.5L25.4,5l-0.8-1.8L23.8,5l-2.7,0.5L23.8,6z M18.2,10.8l0.8,1.8l0.8-1.8l2.7-0.5
				l-2.7-0.5L19,8l-0.8,1.8l-2.7,0.5L18.2,10.8z M8.1,8.3l1.9,4l1.8-4l6.2-1.1l-6.2-1l-1.8-4l-1.9,4L1.9,7.3L8.1,8.3z M16,1
				c3.3,0,6.9,0.6,9.9,2c2.4,1.2,5.2,3.3,5.2,6.3c0,2.6-2,4.5-4.1,5.7c-3.2,2-7.3,2.7-11,2.7c-3.3,0-6.9-0.6-9.9-2
				C3.7,14.4,1,12.3,1,9.4C1,6.8,3,4.9,5,3.7C8.3,1.7,12.3,1,16,1z M16.1,0C12.5,0,8.7,0.7,5.5,2.3C2.8,3.7,0,6.1,0,9.4
				c0,2.8,2.1,5,4.3,6.4c3.4,2.2,7.7,3,11.8,3c3.6,0,7.4-0.7,10.6-2.3c2.7-1.4,5.5-3.8,5.5-7.1c0-2.8-2.1-5-4.3-6.4
				C24.4,0.8,20.1,0,16.1,0L16.1,0z"/>
		</g>
	</g>
</g>
</svg>
