<svg xmlns="http://www.w3.org/2000/svg" width="78" height="68" viewBox="0 0 78 68"><g><g><path fill="#014288" d="M71.999 60.152l-.33 1.809-1.738.611-1.187 1.404-1.794-.33-1.735.624-1.407-1.19-1.805-.332-.612-1.735-1.404-1.191.33-1.816-.623-1.722 1.191-1.397.024-.132 1.819-2.22.222-.08 1.192-1.39 1.816.333 1.722-.624 1.394 1.187 1.814.335.621 1.736 1.387 1.19-.332 1.794.624 1.732zm-11.09-5.397l-4.254 5.196c-1.768-5.086 3.42-13.288 10.066-12.294l-3.993 4.877-1.512.54zm-7.504-7.711c-.543.635-1.866.388-2.954-.554L21.278 21.51c-1.099-.933-1.548-2.19-1.004-2.834.539-.611 1.86-.366 2.95.575l29.163 24.955c1.101.942 1.56 2.215 1.018 2.838zM28.47 45.959c-1.08.95-2.383 1.218-2.932.597-.545-.62-.105-1.888.957-2.819l7.918-6.985c.726.638 1.494 1.275 2.283 1.95zm-15.532 1.29c6.164.109 10.123 7.914 10.097 11.972zm4.928-40.004c.377 6.032-2.748 10.953-7.732 12.318zm37.206 11.29c1.067-.928 2.375-1.198 2.918-.6.549.623.119 1.888-.947 2.84L43.44 32.758l-2.29-1.95zm12.988.128c-4.954-1.28-8.143-6.109-7.844-12.087zm5.16 30.531c-1.499-1.28-3.289-1.982-5.143-2.213-2.906-1.09-8.191-.257-10.567-2.18l-11.745-10.05c4.954-4.311 9.465-8.139 17.625-15.075 1.714-.425 4.223-.089 5.74-.351 4.718-.802 8.396-4.89 8.37-8.807-5.012 2.269-4.013 1.74-6.69 3.128-3.204-.8-5.456-3.212-4.422-7.71 2.71-1.663 4.162-2.39 6.974-3.943-2.18-1.507-6.614-2.442-9.839-.425-6.183 3.907-3.962 9.305-6.006 11.012l-18.55 16.354-18.294-15.676c-2.084-1.683.077-7.138-6.219-10.988-3.273-1.999-7.74-.99-9.91.554 2.865 1.53 4.326 2.241 7.097 3.89 1.114 4.506-1.123 6.965-4.356 7.826-2.712-1.356-1.703-.833-6.785-3.065.031 3.952 3.803 8.018 8.57 8.77 1.516.232 4.049-.143 5.806.268 7.949 6.58 12.502 10.335 17.32 14.386l-10.76 9.492c-2.467 2.058-8.227 1.077-10.953 2.527-3.239 1.735-7.205 5.374-6.719 9.48 2.78-1.83 3.787-2.16 7.35-4.07 2.43 1.313 3.235 2.127 4.698 3.367.233 2.9.233 2.9.3 5.848-2.572 1.343-5.254 2.627-7.763 4.039 4.738 2.318 8.815 1.245 11.679-.586 4.275-2.706 3.76-8.716 5.939-12.828l13.03-11.514c3.63 3.094 8.005 6.852 14.04 12.061 2.249 4.068 1.853 10.06 6.065 12.763.041.037.063.052.093.087 4.293 3.67 11.521 3.12 15.198-1.171 3.667-4.291 3.116-11.533-1.173-15.2z"/></g></g></svg>